<?xml version="1.0" encoding="UTF-8"?>
<svg id="Capa_1" data-name="Capa 1" xmlns="http://www.w3.org/2000/svg" viewBox="0 0 281.71 281.71">
  <defs>
    <style>
      .cls-1 {
        fill: #636363;
      }
    </style>
  </defs>
  <path class="cls-1" d="M140.48,57.21c-10.64.24-20.74,9.72-18.93,21.36l14,89.84c.61,3.9,4.67,5.48,7.61,4.9,3.37-.66,4.95-2.97,5.54-7.3l11.72-87.44c1.6-11.96-8.68-21.6-19.94-21.35Z"/>
  <path class="cls-1" d="M137.9,184.55c-9.7,1.89-14.8,11.19-12.38,20.29,2.08,7.85,10.38,13.36,19.31,11.35,8.15-1.84,13.9-10.2,12.15-18.93-1.7-8.44-9.43-14.59-19.08-12.71Z"/>
  <path class="cls-1" d="M281.71,140.86C281.71,63.06,218.65,0,140.86,0S0,63.06,0,140.86s63.06,140.86,140.86,140.86c21.46,0,81.61-4.1,138.21-39.6l-20.76-23.5c14.78-22.29,23.4-49.02,23.4-77.76ZM268.13,240.44c-54.78,31.64-110.85,34.19-127.27,34.19-35.73,0-69.32-13.91-94.59-39.18-25.27-25.27-39.18-58.86-39.18-94.59s13.91-69.32,39.18-94.59C71.53,21,105.13,7.09,140.86,7.09s69.32,13.91,94.59,39.18c25.27,25.27,39.18,58.86,39.18,94.59,0,26.4-7.68,51.93-22.22,73.85l-3.01,4.53,3.6,4.08,15.13,17.12Z"/>
</svg>